<svg version="1.1" xmlns="http://www.w3.org/2000/svg" style="display: block;" viewBox="0 0 2048 1194" width="1110" height="647" preserveAspectRatio="none">
<defs>
	<linearGradient id="Gradient1" gradientUnits="userSpaceOnUse" x1="339.221" y1="887.834" x2="345.121" y2="906.826">
		<stop class="stop0" offset="0" stop-opacity="1" stop-color="rgb(27,7,10)"/>
		<stop class="stop1" offset="1" stop-opacity="1" stop-color="rgb(0,0,0)"/>
	</linearGradient>
</defs>
<path transform="translate(0,0)" fill="rgb(0,0,0)" d="M 1215.26 806.253 C 1222.24 805.465 1231.03 805.494 1236.12 811.354 C 1270.27 850.715 1217.33 839.694 1209.05 847.034 C 1209.26 850.262 1209.86 851.003 1211.34 853.888 C 1226.16 861.811 1223.57 843.362 1237.07 847.333 C 1238.89 849.021 1240.71 850.558 1240.62 853.019 C 1239.9 872.712 1214.69 875.206 1202.95 863.351 C 1195.72 856.047 1194.22 849.574 1193.72 841.071 C 1182.72 845.953 1175.67 846.903 1163.92 848.648 C 1161.29 848.651 1159.24 848.362 1156.96 849.544 L 1156.44 851.992 C 1161.5 867.848 1173.43 850.058 1184.35 850.664 C 1188.25 852.779 1190.97 858.598 1189.48 861.876 C 1184.45 872.909 1169.61 873.735 1161.62 872.145 C 1128.25 865.503 1139.71 802.167 1173.4 808.96 C 1183.62 811.02 1189.66 821.411 1194.5 829.638 C 1198.83 816.429 1202.57 811.278 1215.26 806.253 z M 1219.75 835.057 C 1237.8 835.209 1237.93 814.974 1218.96 814.129 C 1212.43 816.665 1202.77 824.746 1203.92 832.117 C 1209.9 835.758 1211.94 831.199 1219.75 835.057 z M 1167.52 833.889 C 1172.77 832.817 1177.15 832.855 1179.03 827.265 C 1177.26 822.848 1174.37 823.214 1170.08 822.941 C 1165.72 824.937 1161.89 826.708 1160.22 831.554 C 1161.91 834.857 1163.94 834.311 1167.52 833.889 z"/>
<path transform="translate(0,0)" fill="rgb(254,253,253)" d="M 1215.03 808.218 C 1215.91 808.11 1216.8 808.015 1217.69 807.934 C 1223.24 807.436 1228.92 808.082 1233.07 812.052 C 1264.05 841.678 1208.92 836.304 1203.74 841.645 C 1203.57 845.488 1204.98 851.337 1207.56 854.093 C 1209.77 856.457 1212.82 857.869 1216.05 858.034 C 1222.16 858.375 1225.23 855.607 1229.33 851.832 C 1231.36 849.344 1232.2 848.578 1235.11 850.181 L 1235.66 852.769 C 1232.14 863.522 1219.98 866.479 1210.03 863.794 C 1205.45 862.598 1201.57 859.551 1199.33 855.384 C 1190.31 838.88 1198.32 816.861 1215.03 808.218 z M 1219.75 835.057 C 1237.8 835.209 1237.93 814.974 1218.96 814.129 C 1212.43 816.665 1202.77 824.746 1203.92 832.117 C 1209.9 835.758 1211.94 831.199 1219.75 835.057 z"/>
<path transform="translate(0,0)" fill="rgb(0,0,0)" d="M 1218.96 814.129 C 1237.93 814.974 1237.8 835.209 1219.75 835.057 C 1211.94 831.199 1209.9 835.758 1203.92 832.117 C 1202.77 824.746 1212.43 816.665 1218.96 814.129 z M 1217.25 830.605 C 1222.67 830.226 1227.43 830.27 1231.44 826.235 C 1232.05 822.386 1229.13 820.265 1225.74 818.905 C 1220.37 820.411 1213.2 823.274 1212.97 829.916 L 1214.52 831.674 C 1216.07 831.262 1216.05 831.476 1217.25 830.605 z"/>
<path transform="translate(0,0)" fill="rgb(254,253,253)" d="M 1164.14 810.998 C 1169.5 810.786 1173.42 810.906 1178.35 813.36 C 1183.22 815.789 1192.89 828.944 1188.71 833.896 C 1181.28 842.696 1163.35 840.744 1152.93 843.571 C 1145.42 852.803 1162.48 869.16 1177.18 854.772 C 1179.78 852.513 1178.78 852.704 1181.61 852.542 L 1183.16 854.206 C 1183.82 866.312 1166.17 869.639 1156.86 866.594 C 1152.24 865.132 1148.45 861.787 1146.43 857.384 C 1138.42 840.331 1146.57 818.715 1164.14 810.998 z M 1167.52 833.889 C 1172.77 832.817 1177.15 832.855 1179.03 827.265 C 1177.26 822.848 1174.37 823.214 1170.08 822.941 C 1165.72 824.937 1161.89 826.708 1160.22 831.554 C 1161.91 834.857 1163.94 834.311 1167.52 833.889 z"/>
<path transform="translate(0,0)" fill="rgb(0,0,0)" d="M 1163.9 818.079 C 1171.02 817.156 1177.77 818.358 1180.92 825.7 C 1181.14 834.518 1173.62 834.499 1166.87 835.64 C 1162.85 836.263 1157.95 837.498 1154.31 836.059 C 1151.92 833.589 1152.49 834.832 1152.17 831.376 C 1154.31 825.554 1158.77 821.348 1163.9 818.079 z M 1167.52 833.889 C 1172.77 832.817 1177.15 832.855 1179.03 827.265 C 1177.26 822.848 1174.37 823.214 1170.08 822.941 C 1165.72 824.937 1161.89 826.708 1160.22 831.554 C 1161.91 834.857 1163.94 834.311 1167.52 833.889 z"/>
<path transform="translate(0,0)" fill="rgb(0,0,0)" d="M 1895.89 757.754 C 1904.11 759.101 1907.53 765.12 1907.8 772.992 C 1906.3 776.113 1905.27 775.977 1901.93 778.085 C 1902.55 780.64 1903.9 782.054 1905.48 784.182 C 1906.84 792.95 1907.67 828.767 1902.35 836.605 C 1900.29 842.233 1891.62 832.598 1890.45 832.861 C 1879.75 835.249 1874.44 842.285 1862.79 833.231 C 1852.78 825.454 1852.09 814.752 1850.53 802.371 C 1843.8 803.269 1843.55 802.521 1838.89 797.86 C 1840.13 814.384 1840.98 826.562 1832.03 841.359 C 1828.44 838.759 1824.57 835.441 1821.1 832.589 C 1821.81 830.315 1822.47 828.021 1823.06 825.711 C 1825.01 817.858 1828.39 795.624 1816.64 794.098 C 1811.16 795.874 1808.73 799.681 1805.64 804.236 C 1805.5 813.844 1811.11 838.526 1804.63 843.587 C 1801.28 843.972 1799.99 842.788 1797 841.085 C 1796.45 840.177 1795.95 839.231 1795.53 838.256 C 1794.47 835.821 1792.6 823.045 1792.61 820.224 C 1792.65 810.394 1783.79 781.14 1796.59 777.446 C 1800.12 778.03 1801.32 780.058 1803.63 782.754 C 1821.62 778.089 1826.64 779.676 1836.47 794.91 C 1842.33 786.692 1844.53 787.062 1853.94 785.745 C 1856.43 780.459 1858.47 774.006 1864.99 774.463 C 1868.66 776.377 1870.6 780.493 1872.78 784.123 C 1876.26 784.894 1879.57 786.317 1882.9 787.611 C 1883.65 788.607 1884.38 789.613 1885.1 790.628 C 1887.27 793.711 1888.62 795.312 1887.99 799.047 C 1883.61 802.344 1875.31 798.935 1867.07 798.826 C 1867.14 806.084 1864.77 816.503 1870.35 821.108 C 1874.2 822.329 1878.08 821.21 1882.13 820.498 C 1886.15 822.86 1884.65 824.329 1888.48 828.221 C 1894.39 824.071 1889.89 790.181 1891.51 782.215 C 1892.66 776.564 1894.82 779.327 1895.57 775.478 C 1888.33 768.19 1885.09 764.197 1895.89 757.754 z"/>
<path transform="translate(0,0)" fill="rgb(254,253,253)" d="M 1795.33 778.281 C 1796.48 778.847 1797.29 779.608 1798.3 780.411 C 1799.67 783.974 1799.01 789.009 1798.8 792.986 C 1835.13 755.632 1842.08 824.281 1827.55 833.186 C 1824.31 828.677 1827.53 807.989 1826.6 797.677 C 1819.81 784.206 1805.06 786.799 1800.77 799.974 C 1798.25 807.69 1806.64 832.086 1800.91 838.038 L 1798.99 837.902 C 1793.88 831.758 1789.51 787.059 1795.33 778.281 z"/>
<path transform="translate(0,0)" fill="rgb(254,253,253)" d="M 1862.08 776.455 C 1863.48 776.549 1864.45 776.834 1865.81 777.139 C 1867.49 780.084 1866.4 781.191 1865.51 785.384 C 1869.26 788.221 1876.67 785.817 1881.81 789.936 C 1883.05 792.983 1883.04 791.769 1882.34 794.728 C 1876.36 797.409 1856.13 780.79 1862.42 815.929 C 1864.79 829.171 1877.27 821.457 1882.94 824.45 L 1883.68 827.907 C 1876.98 832.837 1865.9 834.29 1860.26 826.916 C 1852.8 817.16 1853.65 805.816 1854.65 794.395 C 1850.65 795.339 1843.82 798.082 1841.34 794.163 C 1844.32 788.746 1850.9 788.216 1856.52 786.99 C 1858.43 781.897 1858.87 780.784 1862.08 776.455 z"/>
<path transform="translate(0,0)" fill="rgb(254,253,253)" d="M 1896.72 778.379 C 1898.55 779.081 1898.73 779.468 1900.11 780.829 C 1902.71 789.442 1903.12 827.17 1896.24 833.304 L 1893.97 831.696 C 1891.71 826.051 1894.9 792.64 1893.81 784.224 C 1893.6 782.571 1895.59 779.712 1896.72 778.379 z"/>
<path transform="translate(0,0)" fill="rgb(254,253,253)" d="M 1894.46 761.314 C 1896.24 760.348 1898.42 760.481 1900.07 761.659 C 1901.72 762.837 1902.56 764.852 1902.23 766.853 C 1901.89 768.853 1900.45 770.488 1898.5 771.066 C 1895.9 771.841 1893.13 770.522 1892.09 768.011 C 1891.05 765.501 1892.07 762.61 1894.46 761.314 z"/>
<path transform="translate(0,0)" fill="rgb(0,0,0)" d="M 1439.11 792.593 C 1445.52 793.577 1446.3 796.726 1449.46 802.012 C 1456.71 805.008 1465.84 808.069 1465.62 817.965 C 1461.76 822.474 1453.56 816.555 1446.1 817.732 C 1442.29 822.561 1443.88 835.539 1447.56 840.397 C 1450.97 841.753 1456.33 839.78 1460.51 838.859 C 1463.2 842.688 1463.97 843.867 1465.86 848.128 C 1465.76 849.579 1466 850.167 1465.19 851.365 C 1460.1 858.908 1445.44 856.614 1439.17 851.327 C 1430.44 843.956 1429.49 832.3 1428.33 821.546 C 1418.92 821.109 1420.25 819.67 1412.06 814.544 C 1410.56 813.604 1403.7 809.81 1402.02 810.589 C 1388.15 817.008 1402.64 825.996 1408.8 830.587 C 1424.29 850.641 1411.43 869.846 1387.65 861.081 C 1380.61 858.483 1373.67 848.426 1378.79 840.478 C 1386.39 837.89 1390.59 848.555 1398.67 849.15 L 1400.16 847.493 C 1400.49 844.51 1400.92 843.192 1399.68 840.46 C 1392.14 835.375 1388.26 830.663 1382.28 823.958 C 1380.36 814.974 1380.7 814.326 1382.51 805.205 C 1394.31 791.783 1408.93 791.767 1418.48 807.581 C 1422.54 806.538 1427.05 805.619 1431.17 804.686 C 1433.91 799.12 1434.62 796.842 1439.11 792.593 z"/>
<path transform="translate(0,0)" fill="rgb(254,253,253)" d="M 1395.03 798.119 C 1402.04 797.857 1417.83 799.073 1413.56 810.083 C 1407.25 811.333 1397.76 799.217 1391.12 807.917 C 1387.42 826.16 1408.38 826.837 1411.77 843.067 C 1413.48 851.238 1402.7 856.607 1396.28 857.948 C 1388.71 857.603 1380.38 855.343 1378.97 846.865 C 1380.22 843.535 1379.47 844.125 1381.9 842.152 C 1386.12 843.084 1397.72 861.632 1403.53 844.729 C 1403.3 833.198 1362.45 817.372 1395.03 798.119 z"/>
<path transform="translate(0,0)" fill="rgb(254,253,253)" d="M 1440.62 794.54 C 1444.5 797.161 1443.4 799.502 1443.64 803.892 C 1446.74 806.653 1459.45 804.981 1460.73 812.347 C 1455.25 816.694 1448.19 809.697 1440.78 812.332 C 1437.55 817.25 1438.66 834.182 1441.85 839.169 C 1445.51 844.896 1453.96 842.294 1459.7 842.51 L 1460.8 843.831 L 1460.36 847.969 C 1432.35 858.235 1430.75 834.103 1431.92 813.752 C 1428.19 814.603 1420.56 817.118 1418.57 813.102 C 1421.71 807.891 1428.09 807.317 1433.64 806.072 C 1435.55 800.893 1436.82 798.416 1440.62 794.54 z"/>
<path transform="translate(0,0)" fill="rgb(0,0,0)" d="M 1937.3 771.402 C 1943.24 771.39 1950.08 771.548 1954.9 775.189 C 1977.96 792.606 1976.5 827.971 1945.23 833.809 C 1938.62 834.176 1931.95 834.336 1926.63 830.161 C 1904.22 812.582 1906.36 776.886 1937.3 771.402 z M 1927.16 827.08 C 1932.3 827.999 1935.47 828.731 1940.68 828.534 C 1976.08 821.746 1971.48 773.687 1940.04 773.229 C 1909.31 777.528 1906.89 812.539 1927.16 827.08 z"/>
<path transform="translate(0,0)" fill="rgb(254,253,253)" d="M 1940.04 773.229 C 1971.48 773.687 1976.08 821.746 1940.68 828.534 C 1935.47 828.731 1932.3 827.999 1927.16 827.08 C 1906.89 812.539 1909.31 777.528 1940.04 773.229 z M 1927.99 794.65 C 1927.43 810.321 1924.36 823.223 1945.41 818.763 C 1954.43 812.412 1959.82 801.798 1953.36 790.965 C 1949.72 784.861 1943.74 785.544 1937.48 786.151 C 1932.67 789.208 1931.78 790.302 1927.99 794.65 z"/>
<path transform="translate(0,0)" fill="rgb(0,0,0)" d="M 1935.03 780.089 C 1962.84 778.369 1965.66 811.76 1943.72 821.754 C 1941.27 821.924 1935.33 822.366 1933.23 821.508 C 1921.68 816.773 1919.01 800.992 1923.5 790.526 C 1926.31 783.994 1928.98 782.582 1935.03 780.089 z M 1927.99 794.65 C 1927.43 810.321 1924.36 823.223 1945.41 818.763 C 1954.43 812.412 1959.82 801.798 1953.36 790.965 C 1949.72 784.861 1943.74 785.544 1937.48 786.151 C 1932.67 789.208 1931.78 790.302 1927.99 794.65 z"/>
<path transform="translate(0,0)" fill="rgb(0,0,0)" d="M 1596.02 785.299 C 1618.82 783.635 1624.63 800.151 1629.74 818.741 C 1624.78 836.252 1622.57 844.234 1603.24 847.882 C 1574.97 849.66 1562.29 819.762 1575.48 796.83 C 1579.88 789.182 1587.74 786.836 1596.02 785.299 z M 1595.69 834.43 C 1605.25 832.495 1606.1 831.157 1612.93 823.889 C 1613.19 812.319 1616.05 802.16 1602.21 799.274 C 1581.08 801.325 1578.14 829.895 1595.69 834.43 z"/>
<path transform="translate(0,0)" fill="rgb(254,253,253)" d="M 1590.85 788.217 C 1595.58 787.509 1602.2 786.936 1606.73 788.575 C 1612.98 790.823 1618.05 795.526 1620.75 801.596 C 1628.4 818.384 1620.84 834.545 1604.3 841.649 C 1568.19 847.962 1560.71 801.602 1590.85 788.217 z M 1595.69 834.43 C 1605.25 832.495 1606.1 831.157 1612.93 823.889 C 1613.19 812.319 1616.05 802.16 1602.21 799.274 C 1581.08 801.325 1578.14 829.895 1595.69 834.43 z"/>
<path transform="translate(0,0)" fill="rgb(0,0,0)" d="M 1591.8 794.238 C 1601.61 793.666 1608.25 793.855 1613.48 803.459 C 1616.55 809.208 1617.16 815.956 1615.16 822.161 C 1613.03 828.664 1609.71 831.851 1603.88 834.91 C 1576.7 841.857 1571.49 805.092 1591.8 794.238 z M 1595.69 834.43 C 1605.25 832.495 1606.1 831.157 1612.93 823.889 C 1613.19 812.319 1616.05 802.16 1602.21 799.274 C 1581.08 801.325 1578.14 829.895 1595.69 834.43 z"/>
<path transform="translate(0,0)" fill="rgb(0,0,0)" d="M 1528.93 777.197 C 1542.13 776.853 1547.78 778.605 1558.92 785.193 C 1561.66 789.272 1565.02 792.868 1563.4 797.926 C 1555.5 801.963 1542.11 788.244 1529.04 792.939 C 1507.03 800.848 1507.14 822.775 1512.16 841.983 C 1512.8 842.663 1513.46 843.331 1514.13 843.986 C 1527.49 857.072 1545.94 850.997 1557.46 838.721 C 1559.18 836.798 1562.34 835.043 1564.2 836.735 C 1580.73 851.733 1556.79 862.233 1547.54 864.324 C 1524.28 870.743 1499.84 858.043 1495.6 833.098 C 1490.69 804.212 1499.28 783.117 1528.93 777.197 z"/>
<path transform="translate(0,0)" fill="rgb(254,253,253)" d="M 1530.16 779.287 C 1537.72 778.765 1559.57 782.107 1559.2 792.353 C 1555.12 794.284 1545.69 789.469 1541.4 788.133 C 1509.82 778.304 1496.51 815.298 1507.66 838.744 C 1510.48 844.761 1515.63 849.365 1521.93 851.493 C 1531.46 854.716 1543.34 852.466 1552.17 848.07 C 1555.19 844.629 1560.43 836.914 1565.28 840.528 C 1565.29 842.791 1564.53 845.001 1563.17 846.617 C 1543.64 870.027 1501.18 863.957 1497.06 830.122 C 1493.92 804.413 1502.37 783.218 1530.16 779.287 z"/>
<path transform="translate(0,0)" fill="rgb(0,0,0)" d="M 1754.47 779.267 C 1769.75 778.01 1783.08 783.411 1787.05 799.363 C 1792.52 821.312 1754.4 813.957 1749.13 821.674 C 1749.65 823.903 1749.98 825.393 1752.29 826.678 C 1764.01 833.211 1763.77 820.5 1775.35 818.747 C 1784.56 829.883 1784.94 835.539 1770.57 841.108 C 1741.72 852.289 1727.46 818.57 1737.21 796.102 C 1740.55 788.454 1746.74 782.413 1754.47 779.267 z M 1743.51 805.831 C 1747.93 805.858 1754.7 806.104 1758.89 805.599 C 1766.05 804.364 1773.7 804.491 1774.41 795.648 C 1771.7 789.245 1765.74 787.077 1759.26 786.982 C 1749.03 791.792 1747.87 795.238 1743.51 805.831 z"/>
<path transform="translate(0,0)" fill="rgb(254,253,253)" d="M 1755.96 781.199 C 1760.82 780.677 1766.16 780.184 1770.6 782.441 C 1775.38 784.865 1786.21 797.406 1782.46 802.794 C 1775.36 812.973 1755.22 810.315 1744.72 813.319 C 1741.2 821.294 1752.11 838.409 1766.93 827.059 C 1769.67 824.075 1771.13 821.414 1775.2 823.592 L 1775.53 825.948 C 1771.67 836.726 1759.56 839.401 1749.58 836.128 C 1745.04 834.676 1741.28 831.419 1739.21 827.12 C 1731.11 810.622 1739.33 789.257 1755.96 781.199 z M 1743.51 805.831 C 1747.93 805.858 1754.7 806.104 1758.89 805.599 C 1766.05 804.364 1773.7 804.491 1774.41 795.648 C 1771.7 789.245 1765.74 787.077 1759.26 786.982 C 1749.03 791.792 1747.87 795.238 1743.51 805.831 z"/>
<path transform="translate(0,0)" fill="rgb(0,0,0)" d="M 1759.26 786.982 C 1765.74 787.077 1771.7 789.245 1774.41 795.648 C 1773.7 804.491 1766.05 804.364 1758.89 805.599 C 1754.7 806.104 1747.93 805.858 1743.51 805.831 C 1747.87 795.238 1749.03 791.792 1759.26 786.982 z M 1762.23 802.763 C 1767.26 801.772 1767.58 802.509 1770.95 799.58 L 1771.51 797.198 C 1768.46 792.723 1766.57 792.99 1761.43 793.05 C 1758.85 795.791 1754.77 799.165 1754.14 802.353 C 1757.08 803.606 1759.02 803.082 1762.23 802.763 z"/>
<path transform="translate(0,0)" fill="rgb(0,0,0)" d="M 1350.87 798.26 C 1362.51 797.792 1372.3 805.912 1376.95 816.182 C 1388.35 841.315 1344.75 832.461 1340.47 841.849 C 1341.21 845.037 1341.35 845.406 1343.76 847.606 C 1350.53 849.637 1356.8 841.762 1364.51 839.334 C 1368.12 840.04 1366.81 839.591 1370.04 842.656 C 1382.62 860.422 1353.59 862.441 1342.49 861.708 C 1341.48 861.148 1340.49 860.545 1339.52 859.903 C 1316.26 844.356 1320.72 803.874 1350.87 798.26 z M 1353.74 828.059 C 1372.01 822.132 1366.45 805.659 1348.04 807.191 C 1339.43 812.649 1338.15 815.993 1334.53 825.595 C 1342.8 825.836 1345.63 825.799 1353.74 828.059 z"/>
<path transform="translate(0,0)" fill="rgb(254,253,253)" d="M 1349.44 800.138 C 1360.59 799.581 1371.2 806.689 1373.34 818.186 C 1376.26 833.892 1339.93 828.233 1335.19 834.626 C 1335.02 837.734 1337.06 844.937 1339.38 846.871 C 1348.69 854.652 1356.19 848.584 1362.06 842.711 L 1364.06 841.509 L 1366.11 842.063 L 1367.24 844.094 C 1366.52 856.226 1346.09 860.316 1338.18 854.896 C 1318.32 841.304 1327.23 806.779 1349.44 800.138 z M 1353.74 828.059 C 1372.01 822.132 1366.45 805.659 1348.04 807.191 C 1339.43 812.649 1338.15 815.993 1334.53 825.595 C 1342.8 825.836 1345.63 825.799 1353.74 828.059 z"/>
<path transform="translate(0,0)" fill="rgb(0,0,0)" d="M 1348.04 807.191 C 1366.45 805.659 1372.01 822.132 1353.74 828.059 C 1345.63 825.799 1342.8 825.836 1334.53 825.595 C 1338.15 815.993 1339.43 812.649 1348.04 807.191 z M 1340.89 823.167 C 1343.49 823.127 1351.06 823.167 1353.23 822.813 C 1358.97 821.71 1359.15 822.6 1362.87 819.227 C 1364.18 813.638 1359.3 811.912 1354.41 811.777 C 1347.54 815.43 1346 817.302 1340.89 823.167 z"/>
<path transform="translate(0,0)" fill="rgb(0,0,0)" d="M 1254.86 794.547 C 1262.44 795.595 1262.62 797.674 1266.11 804.304 C 1265.53 808.442 1263.97 813.847 1262.89 818.012 C 1270.58 812.365 1283.12 804.895 1291.94 801.401 C 1306.29 816.569 1290.97 819.802 1277.8 826.952 C 1284.38 833.042 1304.25 852.142 1299.36 861.106 C 1296.48 862.552 1295.14 862.059 1292.04 861.531 C 1288.12 857.72 1282.18 849.266 1278.43 844.78 C 1273.35 838.715 1269.1 834.459 1263.43 828.902 C 1265 837.543 1270.23 861.281 1261.34 865.722 C 1257.7 865.885 1255.08 862.968 1252.21 860.55 C 1251.15 845.781 1244.59 804.451 1254.86 794.547 z"/>
<path transform="translate(0,0)" fill="rgb(254,253,253)" d="M 1288.62 804.797 C 1290.95 804.566 1290.89 804.711 1292.85 805.831 L 1293.03 807.941 C 1290.01 813.241 1276.12 819.704 1270.36 822.749 C 1277.13 829.129 1292.32 842.36 1294.36 851.566 C 1294.91 854.021 1293.41 855.171 1291.91 857.281 C 1288.35 853.747 1282.53 845.464 1278.91 841.158 C 1272.55 833.579 1267.17 828.842 1259.7 822.286 C 1267.07 817.133 1280.53 809.631 1288.62 804.797 z"/>
<path transform="translate(0,0)" fill="rgb(254,253,253)" d="M 1256.49 796.366 C 1259.34 797.871 1258.41 796.995 1260.11 799.63 C 1259.04 809.568 1258.77 817.432 1259.07 827.403 C 1259.34 836.253 1263.4 854.53 1258.39 861.3 L 1255.88 859.769 C 1254.66 858.058 1254.14 856.238 1254.07 854.162 C 1253.62 838.475 1246.68 808.924 1256.49 796.366 z"/>
<path transform="translate(0,0)" fill="rgb(0,0,0)" d="M 1634.23 783.538 C 1644.25 784.363 1641.57 788.681 1645.73 789.287 C 1652.75 789.249 1658.22 783.863 1665.41 787.755 C 1682.61 797.066 1684.37 824.282 1677.99 840.736 C 1676.81 843.784 1674.55 844.679 1671.74 845.488 C 1668.32 845.026 1666.23 842.555 1663.69 840.2 C 1666.18 826.462 1666.3 821.706 1666.41 807.75 C 1665.9 804.735 1663.84 802.211 1660.96 801.166 C 1634.29 804.744 1658.11 843.014 1645.64 850.778 C 1641.15 849.876 1641.36 848.942 1637.4 845.407 C 1634.29 831.534 1628.07 795.456 1634.23 783.538 z"/>
<path transform="translate(0,0)" fill="rgb(254,253,253)" d="M 1636.91 785.389 C 1642.25 787.764 1640.81 794.08 1640.63 799.271 C 1670.76 766.53 1686.7 818.48 1669.99 839.785 L 1668.61 839.898 C 1666.46 835.56 1669.12 815.6 1668.82 807.04 C 1666.14 795.393 1656.45 792.193 1647.06 799.111 C 1635.22 807.827 1649.71 838.759 1642.86 845.021 L 1641.15 844.359 C 1635.24 836.381 1633.92 802.998 1634.04 792.037 C 1634.07 789.464 1635.34 787.372 1636.91 785.389 z"/>
<path transform="translate(0,0)" fill="rgb(0,0,0)" d="M 1978.16 769.512 C 1985.54 770.656 1985.27 776.261 1988.14 776.224 C 1995.15 775.916 2001.35 770.951 2008.53 774.822 C 2019.93 780.959 2024.09 798.397 2023.14 810.064 C 2022.44 818.593 2022.26 829.417 2013.71 832.2 C 2010.14 831.647 2008.09 829.18 2005.28 826.677 C 2006.6 816.53 2009.74 808.34 2008.79 797.87 C 2008.28 794.464 2007.96 790.734 2005.4 788.537 C 1976.44 782.865 1998.69 832.072 1987.4 838.46 C 1975.24 834.5 1976.33 813.003 1974.8 802.099 C 1973.31 791.408 1970.87 778.152 1978.16 769.512 z"/>
<path transform="translate(0,0)" fill="rgb(254,253,253)" d="M 1977.99 772.095 C 1980.43 772.596 1980.3 772.622 1982.28 774.193 C 1983.78 777.496 1982.73 782.84 1982.31 786.621 C 1996.69 770.171 2011.77 771.129 2017.51 793.496 C 2019.24 800.251 2018.48 826.167 2009.51 826.96 C 2006.72 823.011 2009.94 816.345 2010.36 811.089 C 2010.86 804.71 2010.98 800.164 2010.46 793.73 C 2008.7 783.602 2001.75 779.758 1992.8 783.769 C 1974.37 792.028 1991.2 817.635 1984.99 832.059 L 1983.77 832.434 C 1976.65 827.325 1974.52 781.158 1977.99 772.095 z"/>
<path transform="translate(0,0)" fill="rgb(0,0,0)" d="M 1719.67 776.806 C 1721.78 776.737 1723.47 776.973 1725.54 777.194 C 1729.09 778.986 1730.66 782.948 1732.66 786.557 C 1733.17 797.962 1721.67 844.4 1710.07 846.795 C 1700.51 842.535 1695.87 817.656 1689.97 805.693 C 1686.8 799.633 1676.39 783.488 1681.47 777.831 C 1694.59 778.289 1706.08 809.838 1709.58 820.533 C 1716.48 802.928 1715.17 792.294 1719.67 776.806 z"/>
<path transform="translate(0,0)" fill="rgb(254,253,253)" d="M 1721.91 778.118 C 1724.47 778.927 1724.52 778.985 1726.26 780.967 C 1729.97 791.487 1717.14 835.679 1707 840.607 C 1702.67 838.202 1697.89 816.559 1695.15 810.865 C 1692.85 806.096 1690.22 800.435 1687.78 795.57 C 1685.54 791.864 1681.31 785.914 1681.68 781.772 C 1684.08 780.247 1682.96 780.552 1686.38 781.249 C 1695.62 788.973 1704.29 816.19 1708.9 828.175 C 1717.69 811.476 1717.09 795.219 1721.91 778.118 z"/>
<path transform="translate(0,0)" fill="rgb(0,0,0)" d="M 1305.7 785.711 C 1307.14 785.702 1308.62 785.693 1310.04 785.92 C 1312.98 786.389 1316.14 789.677 1317.82 792.022 C 1324.48 801.299 1314.25 802.991 1314.07 805.568 C 1313.95 807.341 1318.12 812.806 1318.63 815.255 C 1320.79 825.499 1320.17 847.355 1318.28 857.683 C 1317.57 861.562 1316.81 864.137 1313.42 866.51 C 1297.11 857.612 1305.12 853.641 1304.46 836.817 C 1303.95 823.804 1301.9 814.481 1306.06 801.818 C 1299.54 796.25 1300.08 791.245 1305.7 785.711 z"/>
<path transform="translate(0,0)" fill="rgb(254,253,253)" d="M 1309.29 805.707 L 1311.58 807.275 C 1315.18 813.766 1315.78 854.02 1309.81 860.239 C 1307.05 859.071 1307.89 859.87 1306.44 857.418 C 1305.9 848.022 1306.02 818.985 1306.75 808.646 C 1307.73 807.51 1308.58 806.53 1309.29 805.707 z"/>
<path transform="translate(0,0)" fill="rgb(254,253,253)" d="M 1306.83 788.443 C 1308.72 787.668 1310.9 788.061 1312.41 789.451 C 1313.91 790.841 1314.48 792.977 1313.86 794.931 C 1313.24 796.885 1311.54 798.304 1309.51 798.571 C 1306.88 798.917 1304.4 797.255 1303.72 794.688 C 1303.04 792.121 1304.37 789.447 1306.83 788.443 z"/>
<path transform="translate(0,0)" fill="rgb(0,0,0)" d="M 506.082 0 L 511.562 0 C 526.48 8.59011 538.029 13.7455 551.956 24.4595 C 599.488 61.0258 630.722 125.001 645.338 182.246 C 667.385 268.598 666.117 345.621 645.919 431.637 C 667.005 437.387 702.271 454.282 713.319 473.315 C 717.493 466.522 721.258 457.213 724.818 449.862 C 799.675 295.299 959.285 171.99 1134.88 262.373 C 1127.69 285.854 1123.61 310.6 1117.24 334.32 C 1115.22 341.824 1113 349.157 1111.09 356.711 C 1112.63 359.46 1115.84 360.286 1118.95 361.626 C 1123.83 362.325 1122.15 361.494 1125.61 364.455 C 1130.71 366.787 1140.83 371.634 1145.97 372.897 C 1173.7 355.403 1212.41 349.413 1244.07 356.806 C 1278.19 364.775 1297.95 381.572 1319.61 407.686 C 1330.44 420.74 1335.34 424.794 1344.86 439.871 C 1369.67 479.17 1371.45 507.756 1375.81 551.313 C 1392.17 535.748 1407.63 528.947 1429.19 522.458 C 1422.3 522.107 1415.4 521.697 1408.51 521.607 L 1409.19 505.321 C 1398.74 505.805 1391.31 505.706 1380.81 504.596 C 1382.91 492.676 1383.34 475.159 1384.78 462.883 C 1394.24 382.126 1441 323.903 1528.1 337.143 C 1572.89 343.951 1595.46 374.322 1622.4 407.864 C 1639.16 429.923 1647.95 458.957 1653.98 485.886 L 1655.21 485.975 C 1653.23 437.754 1646.55 387.657 1644.78 339.4 C 1654.55 338.617 1674.44 334.296 1684.52 332.377 C 1708.64 327.708 1732.78 323.206 1756.96 318.873 C 1756.62 327.17 1757.12 338.297 1757.27 346.798 L 1776.32 343.373 C 1774.01 328.49 1773.44 312.721 1771.09 297.794 C 1806.46 290.932 1858.32 284.105 1894.49 279.444 C 1894.38 286.128 1895.63 299.069 1896.1 306.282 L 1913.62 303.779 C 1919.22 389.601 1929.95 477.396 1935.68 563.594 C 1922.25 564.983 1908.85 566.637 1895.49 568.556 C 1913.4 576.001 1918.81 583.518 1930.86 597.554 C 1935.42 602.752 1940.69 607.583 1945.08 612.908 C 1967.57 640.219 1963.28 683.499 1935.87 705.936 C 1921.68 717.566 1903.41 722.985 1885.18 720.969 C 1865.26 718.695 1856.4 710.032 1841.02 699.457 C 1829.76 691.705 1823.39 690.095 1814.08 678.162 C 1802.55 663.282 1797.46 644.402 1799.96 625.744 C 1802.25 608.459 1811.24 590.739 1825.13 579.933 C 1825.23 571.822 1824.67 566.082 1823.87 558.003 C 1815.55 558.928 1807.5 559.765 1799.24 561.179 C 1797.3 533.657 1793.38 502.466 1790.29 474.881 C 1786.89 444.546 1783.88 412.09 1779.78 381.953 L 1778.81 382.003 C 1776.85 392.376 1779.94 451.489 1780.51 467.21 L 1785.7 624.337 C 1786.69 652.829 1789.2 691.166 1788.27 718.783 C 1759.28 718.849 1728.03 718.46 1699.17 719.617 C 1698.69 714.452 1697.93 708.063 1697.87 702.972 C 1690.33 702.992 1681.39 703.244 1673.97 702.976 C 1674.31 719.385 1676.8 735.309 1677.31 751.167 C 1642.37 747.934 1605.45 747.487 1570.05 744.693 C 1570.07 739.366 1570.07 735.127 1570.67 729.788 C 1561.07 729.054 1552.31 728.887 1542.67 728.732 L 1543.62 718.793 C 1501.18 715.85 1462.56 719.876 1421.49 698.547 C 1408.96 692.037 1399.96 683.44 1387.89 676.984 C 1390.39 701.903 1394.15 734.19 1395.12 758.773 C 1385.08 758.88 1362.65 763.112 1351.93 765.068 C 1335.79 768.015 1315.94 770.695 1300.19 774.36 L 1298.3 754.577 C 1291.16 755.273 1280.28 756.816 1273.3 758.597 C 1271.04 720.052 1268.57 681.52 1265.89 643.003 C 1262.45 591.365 1260.2 501.396 1239.51 457.292 C 1218.2 461.25 1202.27 469.398 1189.78 487.842 C 1149.55 547.237 1188.25 688.209 1194.35 758.029 C 1171.43 761.283 1130.4 771.102 1107.1 776.318 C 1105.87 768.855 1105.2 763.622 1104.66 756.079 C 1096.31 757.587 1088.69 759.014 1080.44 760.964 L 1064.93 620.23 C 1063.2 604.562 1058.4 572.144 1057.81 558.354 L 1050.19 561.282 C 1044.05 618.776 1035.57 676.226 1009.78 728.776 C 1045.76 757.462 1066.04 783.664 1086.44 824.421 L 1087.34 826.974 L 1089.06 827.178 C 1089.05 847.003 1090.07 857.143 1092.88 876.501 L 1091.49 877.07 C 1095.05 883.321 1097.47 885.357 1105.05 885.034 C 1105.04 893.804 1106.14 902.39 1106.59 911.152 C 1107.53 927.424 1107.24 943.743 1105.73 959.973 C 1072.77 962.251 1042.05 969.504 1006.97 971.403 C 1006.78 1003.32 1006.38 1054.93 1000.04 1085.75 C 986.524 1086.2 975.15 1086.75 961.543 1085.06 C 907.998 1078.38 859.69 1049.25 820.602 1013.37 C 785.018 980.696 760.893 948.421 735.395 908.23 C 734.074 906.371 731.982 902.329 730.768 900.143 C 724.093 887.946 716.888 875.536 711.431 862.803 L 712.928 862.479 C 715.721 863.58 716.547 863.957 719.508 864.331 C 722.366 862.478 721.635 863.545 722.348 860.408 C 719.515 849.545 714.162 849.706 705.033 848.811 C 693.72 821.578 689.991 805.75 681.074 778.947 C 674.611 779.814 652.704 786.877 644.508 788.967 C 612.021 794.099 584.14 795.738 551.271 794.95 C 545.642 794.816 528.277 798.636 521.783 799.724 L 465.275 809.168 L 461.53 789.568 C 453.744 790.702 447.095 791.657 439.427 793.423 C 437.956 785.392 436.338 777.388 434.572 769.416 C 431.266 753.102 426.871 733.783 424.507 717.546 C 403.998 728.84 389.278 739.332 367.223 749.788 C 365.996 773.236 363.982 796.659 362.635 820.121 C 347.207 818.07 329.522 817.302 313.866 816.136 C 303.267 815.347 284.784 813.567 274.564 814.211 C 275.074 808.963 275.473 804.461 276.486 799.254 C 267.196 798.382 255.938 797.046 246.704 797.835 C 247.301 794.172 247.87 790.257 248.608 786.647 C 224.235 788.524 205.505 789.713 180.857 786.813 C 111.494 778.652 54.8456 743.615 12.001 689.129 C 33.3984 663.48 51.4141 637.449 73.8267 611.698 C 48.0692 584.914 23.4389 557.069 0 528.235 L 0 525.029 C 70.9897 437.177 209.523 444.595 308.746 466.048 C 312.175 452.151 315.2 432.132 318.141 417.356 C 345.096 414.422 372.033 411.334 398.952 408.094 C 306.688 309.508 278.846 178.735 356.108 62.3902 C 379.27 70.2699 428.823 86.8943 448.736 97.3332 C 465.393 64.9906 486.742 30.92 506.082 0 z M 863.71 596.439 L 862.117 597.497 C 860.536 610.796 863.438 647.631 869.373 659.853 C 869.976 660.248 871.049 661.085 871.729 661.21 C 878.312 662.92 885.047 664.545 891.479 666.726 C 912.468 662.967 923.267 632.737 926.642 614.053 C 927.622 608.627 929.819 598.323 928.556 593.32 L 926.319 592.501 C 913.934 593.901 902.812 594.992 890.305 595.636 C 882.017 596.062 871.652 595.757 863.71 596.439 z M 481.22 548.879 C 488.854 554.16 490.804 556.813 497.343 562.935 C 496.543 538.129 494.647 512.668 493.085 487.849 C 483.039 481.968 459.297 462.894 452.484 459.906 C 454.164 467.879 477.574 544.395 481.22 548.879 z M 1533.17 450.237 C 1495.38 454.702 1493.74 483.608 1492.65 514.768 C 1501.71 513.976 1509.16 514.498 1518.25 514.949 C 1528.61 515.342 1542.55 516.598 1553 517.897 C 1552.64 505.245 1548.24 451.951 1533.17 450.237 z M 1455.51 632.41 C 1467.78 635.158 1473.13 635.499 1485.75 635.377 C 1507.53 634.923 1529.17 631.64 1550.11 625.61 L 1550.08 597.261 C 1542.25 596.864 1528.02 595.812 1520.52 596.435 C 1493.95 598.013 1456.64 597.536 1455.51 632.41 z M 608.003 520.162 L 602.658 525.898 C 603.584 584.277 607.931 645.296 608.236 703.002 C 627.512 700.387 641.984 696.227 656.702 682.2 C 677.027 661.071 682.54 637.043 681.992 608.083 C 681.504 582.315 673.31 550.15 655.174 530.822 C 644.08 518.999 623.199 519.957 608.003 520.162 z"/>
<path transform="translate(0,0)" fill="rgb(193,37,73)" d="M 506.082 0 L 511.562 0 C 526.48 8.59011 538.029 13.7455 551.956 24.4595 C 599.488 61.0258 630.722 125.001 645.338 182.246 C 667.385 268.598 666.117 345.621 645.919 431.637 C 626.523 427.534 617.136 426.679 597.219 426.925 C 594.464 407.534 595.396 374.745 594.712 354.129 L 575.906 354.155 L 575.763 330.963 C 546.547 330.991 512.228 330.366 483.458 332.063 L 490.518 443.819 C 491.147 455.335 493.385 477.426 493.085 487.849 C 483.039 481.968 459.297 462.894 452.484 459.906 C 450.371 458.012 443.687 434.547 442.349 430.123 C 438.38 430.325 433.904 430.811 429.898 431.153 L 421.563 405.632 C 414.305 405.963 406.811 407.694 398.952 408.094 C 306.688 309.508 278.846 178.735 356.108 62.3902 C 379.27 70.2699 428.823 86.8943 448.736 97.3332 C 465.393 64.9906 486.742 30.92 506.082 0 z"/>
<path transform="translate(0,0)" fill="rgb(193,37,73)" d="M 769.02 694.363 C 792.922 740.456 806.018 749.457 851.026 778.005 C 873.491 792.255 914.879 798.622 940.476 791.481 C 976.338 781.475 992.315 759.045 1009.78 728.776 C 1045.76 757.462 1066.04 783.664 1086.44 824.421 L 1087.34 826.974 L 1089.06 827.178 C 1089.05 847.003 1090.07 857.143 1092.88 876.501 L 1091.49 877.07 C 1095.05 883.321 1097.47 885.357 1105.05 885.034 C 1105.04 893.804 1106.14 902.39 1106.59 911.152 C 1107.53 927.424 1107.24 943.743 1105.73 959.973 C 1072.77 962.251 1042.05 969.504 1006.97 971.403 C 1006.78 1003.32 1006.38 1054.93 1000.04 1085.75 C 986.524 1086.2 975.15 1086.75 961.543 1085.06 C 907.998 1078.38 859.69 1049.25 820.602 1013.37 C 785.018 980.696 760.893 948.421 735.395 908.23 C 734.074 906.371 731.982 902.329 730.768 900.143 C 724.093 887.946 716.888 875.536 711.431 862.803 L 712.928 862.479 C 715.721 863.58 716.547 863.957 719.508 864.331 C 722.366 862.478 721.635 863.545 722.348 860.408 C 719.515 849.545 714.162 849.706 705.033 848.811 C 693.72 821.578 689.991 805.75 681.074 778.947 C 683.315 776.774 699.288 771.011 703.471 768.571 C 736.706 749.181 754.056 728.603 769.02 694.363 z"/>
<path transform="translate(0,0)" fill="rgb(0,0,0)" d="M 730.768 900.143 C 731.537 887.036 722.307 840.843 728.571 833.304 C 731.689 831.774 730.286 832.024 733.965 832.596 C 742.615 838.378 740.582 864.838 742.063 875.626 C 743.263 884.367 745.31 899.309 745.073 907.661 C 742.183 910.121 738.909 908.966 735.395 908.23 C 734.074 906.371 731.982 902.329 730.768 900.143 z"/>
<path transform="translate(0,0)" fill="rgb(254,253,253)" d="M 729.502 833.418 C 731.308 833.53 734.345 833.776 734.658 836.003 C 735.616 845.434 736.356 856.617 736.648 866.007 C 736.902 874.164 742.204 899.828 738.699 905.832 C 736.352 904.807 735.226 904.07 734.341 901.502 C 730.879 891.449 725.936 841.112 729.502 833.418 z"/>
<path transform="translate(0,0)" fill="rgb(100,17,33)" d="M 1087.34 826.974 L 1089.06 827.178 C 1089.05 847.003 1090.07 857.143 1092.88 876.501 L 1091.49 877.07 C 1087.72 864.903 1085.91 839.506 1087.34 826.974 z"/>
<path transform="translate(0,0)" fill="rgb(254,253,253)" d="M 895.464 815.972 C 899.137 813.248 897.686 813.613 901.53 813.268 C 904.551 814.776 906.064 817.804 907.899 820.673 C 908.148 830.114 911.148 889.426 908.797 892.672 C 903.442 893.21 901.823 890.21 898.101 886.516 C 885.516 894.243 876.458 896.111 864.637 885.933 C 860.351 882.391 856.847 878.23 855.792 872.602 C 852.162 853.247 859.273 833.583 881.193 831.906 C 885.177 831.602 889.03 831.644 892.998 831.04 C 894.521 828.738 893.602 820.504 895.464 815.972 z"/>
<path transform="translate(0,0)" fill="rgb(0,0,0)" d="M 895.464 815.972 C 899.137 813.248 897.686 813.613 901.53 813.268 C 904.551 814.776 906.064 817.804 907.899 820.673 C 908.148 830.114 911.148 889.426 908.797 892.672 C 903.442 893.21 901.823 890.21 898.101 886.516 C 885.516 894.243 876.458 896.111 864.637 885.933 L 866.173 884.83 C 878.36 891.238 888.906 885.573 897.941 877.07 C 898.822 881.814 899.013 884.364 902.458 887.672 L 903.779 886.947 C 905.831 881.538 904.056 821.335 902.698 815.872 C 899.523 814.747 900.578 815.074 896.587 816.476 L 895.464 815.972 z"/>
<path transform="translate(0,0)" fill="rgb(100,17,33)" d="M 864.637 885.933 C 860.351 882.391 856.847 878.23 855.792 872.602 C 852.162 853.247 859.273 833.583 881.193 831.906 C 885.177 831.602 889.03 831.644 892.998 831.04 C 894.521 828.738 893.602 820.504 895.464 815.972 L 896.587 816.476 C 896.209 824.175 896.289 827.974 896.932 835.661 C 879.418 830.413 863.048 835.884 857.845 854.713 C 855.631 862.65 856.626 871.14 860.617 878.35 C 862 880.793 863.946 882.643 865.934 884.591 L 866.173 884.83 L 864.637 885.933 z"/>
<path transform="translate(0,0)" fill="rgb(0,0,0)" d="M 881.717 839.118 C 888.062 839.154 890.554 840.022 896.682 841.838 L 898 866.812 C 892.014 875.072 891.772 877.851 882.33 881.394 C 857.108 881.011 857.602 846.511 881.717 839.118 z"/>
<path transform="translate(0,0)" fill="rgb(193,37,73)" d="M 882.529 845.336 C 888.59 844.74 890.692 843.724 895.045 847.197 C 897.262 851.845 896.203 860.305 896.063 866.031 C 891.711 872.92 890.574 876.102 882.873 879.003 C 859.977 880.425 866.947 852.288 882.529 845.336 z"/>
<path transform="translate(0,0)" fill="rgb(254,253,253)" d="M 1015.16 818.939 C 1038.27 795.065 1079.95 808.441 1073.98 824.655 C 1071.95 825.786 1069.82 826.274 1067.45 825.143 C 1033.01 808.7 1010.9 836.32 1024.5 869.369 C 1029.66 881.896 1050.28 881.541 1060.67 875.325 C 1064.75 873.163 1069.73 865.273 1073.91 864.164 C 1078.85 865.262 1080.96 870.538 1083.22 874.677 C 1062.14 908.23 1009.54 894.603 1007.01 855.998 C 1002.89 844.287 1008.28 828.648 1015.16 818.939 z"/>
<path transform="translate(0,0)" fill="rgb(0,0,0)" d="M 1015.16 818.939 C 1038.27 795.065 1079.95 808.441 1073.98 824.655 C 1071.95 825.786 1069.82 826.274 1067.45 825.143 C 1033.01 808.7 1010.9 836.32 1024.5 869.369 C 1029.66 881.896 1050.28 881.541 1060.67 875.325 C 1064.75 873.163 1069.73 865.273 1073.91 864.164 C 1078.85 865.262 1080.96 870.538 1083.22 874.677 C 1062.14 908.23 1009.54 894.603 1007.01 855.998 L 1008.7 856.185 C 1015.47 905.978 1077.58 887.812 1077.37 868.397 L 1076.01 867.146 C 1067.64 868.08 1048.54 892.642 1028.05 876.64 C 1005.19 858.796 1014.59 808.983 1048.67 814.651 C 1054.14 815.562 1066.32 824.133 1070.24 818.906 C 1067.74 809.872 1051.98 806.745 1043.92 807.149 C 1032.45 807.724 1024.63 811.621 1016.93 819.927 L 1015.16 818.939 z"/>
<path transform="translate(0,0)" fill="rgb(100,17,33)" d="M 1007.01 855.998 C 1002.89 844.287 1008.28 828.648 1015.16 818.939 L 1016.93 819.927 C 1008.45 832.885 1007.77 840.543 1008.7 856.185 L 1007.01 855.998 z"/>
<path transform="translate(0,0)" fill="rgb(0,0,0)" d="M 766.037 839.17 C 785.617 838.643 793.192 854.001 794.901 872.195 C 795.725 880.974 796.016 897.78 790.577 904.905 C 788.519 907.6 783.699 903.434 781.557 902.845 C 768.671 905.558 765.054 904.605 755.641 895.358 C 749.881 889.599 747.65 878.66 752.142 871.467 C 757.48 862.918 761.782 861.809 771.091 859.423 C 776.042 861.211 775.884 862 780.417 861.23 L 781.626 857.861 C 776.671 850.308 766.967 854.574 761.096 857.42 C 748.318 847.611 751.981 843.211 766.037 839.17 z"/>
<path transform="translate(0,0)" fill="rgb(254,253,253)" d="M 764.179 841.112 C 765.234 841.055 766.29 841.01 767.347 840.977 C 799.599 840.027 793.047 901.678 782.649 900.728 C 781.888 899.444 781.583 898.999 781.11 897.57 L 780.802 896.613 C 769.659 894.733 766.601 905.472 754.553 891.683 C 750.017 881.559 750.83 868.898 762.077 863.468 C 768 860.609 776.722 863.796 782.361 866.019 L 783.217 864.164 C 782.587 859.76 781.018 854.197 777.859 850.933 C 769.969 842.783 765.63 851.272 756.784 851.103 L 755.058 849.28 L 755.165 847.016 C 757.218 843.859 760.692 842.735 764.179 841.112 z"/>
<path transform="translate(0,0)" fill="rgb(0,0,0)" d="M 767.637 868.279 C 774.346 866.221 781.458 869.964 783.561 876.658 C 785.664 883.353 781.969 890.491 775.289 892.639 C 768.544 894.807 761.324 891.069 759.201 884.31 C 757.078 877.552 760.864 870.357 767.637 868.279 z"/>
<path transform="translate(0,0)" fill="rgb(193,37,73)" d="M 774.92 873.04 C 779.43 873.453 780.275 874.419 782.418 877.992 C 783.342 885.529 779.131 888.865 773.082 891.877 C 757.445 889.833 761.404 876.724 774.92 873.04 z"/>
<path transform="translate(0,0)" fill="rgb(0,0,0)" d="M 804.217 833.918 C 812.708 834.041 812.725 840.109 815.373 839.289 C 833.604 833.648 841.858 834.864 849.041 854.532 C 851.718 861.864 855 889.534 843.672 893.113 C 839.393 892.241 839.557 891.383 835.76 888.155 C 837.373 876.387 838.507 868.049 837.363 856.24 C 836.809 852.688 836.109 851.86 833.475 850.005 C 802.622 846.34 828.875 893.451 816.667 899.131 C 813.066 898.476 811.442 896.329 808.707 893.739 C 806.176 878.363 798.436 846.613 804.217 833.918 z"/>
<path transform="translate(0,0)" fill="rgb(254,253,253)" d="M 805.056 835.224 C 807.027 835.475 807.506 835.805 809.251 836.627 C 811.221 840.043 810.167 842.548 810.34 846.756 C 812.925 846.536 819.742 840.875 823.262 839.047 C 849.394 825.478 851.643 882.858 839.987 887.169 C 836.606 882.849 840.156 870.534 839.819 864.712 C 839.563 860.294 839.334 858.706 838.423 854.252 C 835.819 845.408 824.654 840.186 818.562 845.532 C 807.216 855.488 816.09 878.224 816.255 890.462 C 816.283 892.547 814.507 893.484 812.996 894.424 C 807.359 892.122 802.544 844.602 805.056 835.224 z"/>
<path transform="translate(0,0)" fill="rgb(0,0,0)" d="M 931.13 825.355 C 940.015 823.891 957.93 827.522 955.818 841.555 C 955.069 846.53 941.458 836.755 934.294 839.77 C 922.713 855.509 972.972 864.415 946.471 888.543 C 943.871 890.91 938.709 891.063 935.331 891.366 C 934.486 891.3 933.643 891.213 932.803 891.107 C 924.205 890.017 913.804 882.286 915.267 872.712 C 917.06 869.923 917.339 869.235 920.292 867.839 C 925.97 869.305 925.652 874.575 929.589 877.432 C 932.585 879.606 937.564 876.849 938.813 873.09 C 936.344 863.089 898.587 842.496 931.13 825.355 z"/>
<path transform="translate(0,0)" fill="rgb(254,253,253)" d="M 935.751 826.13 C 942.682 826.713 950.519 829.446 951.885 837.1 C 944.07 841.971 939.603 825.504 929.488 836.059 C 922.695 855.796 946.982 853.741 949.149 872.583 C 950.28 882.417 937.217 885.976 929.899 886.542 C 923.432 884.674 915.023 879.303 916.956 871.557 C 918.731 870.383 919.818 870.724 921.968 870.88 C 926.14 876.587 931.167 885.618 939.752 876.237 C 941.957 868.566 934.227 863.347 929.162 858.322 C 916.55 845.808 915.634 831.582 935.751 826.13 z"/>
<path transform="translate(0,0)" fill="rgb(0,0,0)" d="M 958.782 809.83 C 975.261 809.923 978.751 828.318 965.178 839.024 C 962.386 837.421 957.873 834.115 955.069 832.188 C 964.945 822.386 957.836 824.403 954.743 816.628 C 955.244 813.032 956.289 812.332 958.782 809.83 z"/>
<path transform="translate(0,0)" fill="rgb(254,253,253)" d="M 958.815 811.407 C 973.872 811.704 970.81 827.728 959.573 833.641 C 957.165 827.863 963.689 829.96 964.415 822.527 C 962.655 818.452 960.354 821.868 956.483 817.99 C 956.471 814.504 957.013 814.668 958.815 811.407 z"/>
<path transform="translate(0,0)" fill="rgb(193,37,73)" d="M 0 525.029 C 70.9897 437.177 209.523 444.595 308.746 466.048 C 296.326 538.924 280.799 614.652 267.045 687.597 L 253.966 757.614 C 253.041 762.597 249.64 783.483 248.608 786.647 C 224.235 788.524 205.505 789.713 180.857 786.813 C 111.494 778.652 54.8456 743.615 12.001 689.129 C 33.3984 663.48 51.4141 637.449 73.8267 611.698 C 48.0692 584.914 23.4389 557.069 0 528.235 L 0 525.029 z"/>
<path transform="translate(0,0)" fill="rgb(193,37,73)" d="M 713.319 473.315 C 717.493 466.522 721.258 457.213 724.818 449.862 C 799.675 295.299 959.285 171.99 1134.88 262.373 C 1127.69 285.854 1123.61 310.6 1117.24 334.32 C 1115.22 341.824 1113 349.157 1111.09 356.711 C 1112.63 359.46 1115.84 360.286 1118.95 361.626 C 1112.71 364.819 1050.2 377.708 1039.01 379.593 C 1039.36 386.919 1041.3 402.328 1040.74 408.039 L 1039.62 409.221 C 1035.39 409.252 1036.72 409.828 1034.09 407.572 C 1031.83 401.976 1033.17 391.453 1032.88 384.654 C 993.135 386.888 953.551 387.725 913.645 390.094 C 925.07 448.24 930.801 507.361 930.756 566.619 C 930.723 571.256 930.786 588.089 928.835 591.656 L 926.319 592.501 C 913.934 593.901 902.812 594.992 890.305 595.636 C 882.017 596.062 871.652 595.757 863.71 596.439 L 861.675 595.066 C 860.157 588.459 861.914 573.236 862.546 565.677 C 866.556 516.629 874.24 467.951 885.531 420.052 C 877.921 419.547 869.966 419.485 862.309 419.311 C 863.227 412.442 865.538 402.804 867.023 395.807 C 833.975 396.211 790.748 392.91 758.842 394.859 C 751.771 415.726 745.172 486.806 744.747 510.226 C 735.475 496.661 724.26 485.63 713.319 473.315 z"/>
<path transform="translate(0,0)" fill="rgb(193,37,73)" d="M 370.068 705.504 C 386.982 702.838 403.204 701.588 420.267 698.49 C 422.135 705.151 423.213 710.786 424.507 717.546 C 403.998 728.84 389.278 739.332 367.223 749.788 C 367.809 735.182 369.479 720.587 370.068 705.504 z"/>
<path transform="translate(0,0)" fill="rgb(193,37,73)" d="M 501.212 612.224 C 497.979 605.699 481.299 554.401 481.22 548.879 C 488.854 554.16 490.804 556.813 497.343 562.935 C 498.876 566.884 500.835 605.358 501.212 612.224 z"/>
<path transform="translate(0,0)" fill="rgb(193,37,73)" d="M 1125.61 364.455 C 1130.71 366.787 1140.83 371.634 1145.97 372.897 C 1142.77 375.746 1131.41 383.261 1127.35 386.088 L 1125.61 364.455 z"/>
<path transform="translate(0,0)" fill="rgb(193,37,73)" d="M 1052.03 532.216 L 1053.38 526.708 L 1055.12 531.373 C 1055.76 538.968 1058.06 551.769 1057.81 558.354 L 1050.19 561.282 C 1050.07 555.013 1051.8 540.484 1052.03 532.216 z"/>
<path transform="translate(0,0)" fill="rgb(78,77,82)" d="M 1653.98 485.886 L 1655.21 485.975 C 1657.33 490.626 1661.62 552.518 1660.44 555.377 L 1656.07 511.436 C 1655.34 504.046 1653.71 492.888 1653.98 485.886 z"/>
<path transform="translate(0,0)" fill="rgb(193,37,73)" d="M 891.479 666.726 L 891.062 667.619 C 885.478 668.529 871.768 669.889 870.08 662.994 L 871.729 661.21 C 878.312 662.92 885.047 664.545 891.479 666.726 z"/>
<path transform="translate(0,0)" fill="rgb(186,187,191)" d="M 1778.81 382.003 C 1775.92 377.805 1776.57 360.978 1776.55 355.277 C 1778.55 360.395 1779.77 376.111 1779.78 381.953 L 1778.81 382.003 z"/>
<path transform="translate(0,0)" fill="rgb(100,17,33)" d="M 1052.03 532.216 C 1051.8 524.005 1052.16 516.841 1052.56 508.63 C 1053.88 515.946 1054.43 523.934 1055.12 531.373 L 1053.38 526.708 L 1052.03 532.216 z"/>
<path transform="translate(0,0)" fill="rgb(254,253,253)" d="M 563.373 338.513 C 563.961 338.407 566.024 338.419 566.748 338.405 C 568.341 340.984 570.38 426.334 570.497 437.202 C 641.828 427.453 699.507 446.81 730.982 515.639 C 744.069 544.258 743.747 550.341 744.974 580.873 C 746.219 611.864 755.09 638.921 743.106 669.881 C 727.662 709.78 703.192 733.439 664.898 750.988 C 624.326 768.263 585.044 770.814 541.794 770.335 C 533.945 746.436 524.825 722.832 517.04 698.925 C 512.091 683.724 512.039 663.579 511.069 647.309 L 506.917 579.506 L 491.789 339.807 C 509.287 338.042 544.536 338.788 563.373 338.513 z M 602.658 525.898 C 603.584 584.277 607.931 645.296 608.236 703.002 C 627.512 700.387 641.984 696.227 656.702 682.2 C 677.027 661.071 682.54 637.043 681.992 608.083 C 681.504 582.315 673.31 550.15 655.174 530.822 C 644.08 518.999 623.199 519.957 608.003 520.162 L 602.658 525.898 z"/>
<path transform="translate(0,0)" fill="rgb(0,0,0)" d="M 589.763 495.427 C 593.35 495.455 596.936 495.557 600.519 495.733 C 667.125 499.631 694.186 566.153 689.719 624.555 C 687.551 652.889 678.7 674.155 656.922 693.02 C 635.634 709.114 608.175 713.794 582.096 711.117 C 582.144 688.985 580.581 662.421 579.816 639.91 L 574.759 496.407 L 589.763 495.427 z M 602.658 525.898 C 603.584 584.277 607.931 645.296 608.236 703.002 C 627.512 700.387 641.984 696.227 656.702 682.2 C 677.027 661.071 682.54 637.043 681.992 608.083 C 681.504 582.315 673.31 550.15 655.174 530.822 C 644.08 518.999 623.199 519.957 608.003 520.162 L 602.658 525.898 z"/>
<path transform="translate(0,0)" fill="rgb(254,253,253)" d="M 1502.3 343.439 C 1590.86 340.78 1625.26 423.968 1630.33 499.386 C 1631.68 519.372 1633.87 540.011 1635.59 560.019 L 1650.17 726.106 C 1621.62 726.135 1580.57 722.548 1550.92 720.878 C 1552.07 712.159 1552.52 700.405 1553.1 691.421 C 1496.28 696.593 1379.26 700.891 1363.12 628.333 C 1348.57 515.365 1485.69 515.545 1561.99 527.185 C 1560.05 498.643 1558.36 460.965 1538.19 438.598 C 1523.87 422.722 1495.49 422.348 1480.91 438.159 C 1466.09 454.229 1465.83 478.243 1466.19 498.818 C 1444.7 497.104 1412.15 497.496 1390.02 497.248 C 1391.82 421.289 1416.14 348.387 1502.3 343.439 z M 1455.51 632.41 C 1467.78 635.158 1473.13 635.499 1485.75 635.377 C 1507.53 634.923 1529.17 631.64 1550.11 625.61 L 1550.08 597.261 C 1542.25 596.864 1528.02 595.812 1520.52 596.435 C 1493.95 598.013 1456.64 597.536 1455.51 632.41 z"/>
<path transform="translate(0,0)" fill="rgb(0,0,0)" d="M 1480.1 573.387 C 1497.91 570.365 1540.16 574.289 1558.06 576.269 L 1558.12 631.682 C 1543.56 636.247 1524.15 639.859 1509.24 641.746 C 1504.11 642.518 1498.89 642.364 1492.99 643.235 C 1462.28 647.765 1410.91 631.349 1433.77 591.845 C 1440.87 579.573 1464.99 575.156 1480.1 573.387 z M 1455.51 632.41 C 1467.78 635.158 1473.13 635.499 1485.75 635.377 C 1507.53 634.923 1529.17 631.64 1550.11 625.61 L 1550.08 597.261 C 1542.25 596.864 1528.02 595.812 1520.52 596.435 C 1493.95 598.013 1456.64 597.536 1455.51 632.41 z"/>
<path transform="translate(0,0)" fill="rgb(254,253,253)" d="M 1203.48 362.38 C 1278.58 353.558 1328.91 415.733 1343.02 483.002 C 1349.98 516.189 1349.92 555.889 1354.06 589.832 C 1355.91 604.995 1350.88 622.403 1357.31 637.37 C 1359.26 641.908 1360.51 647.844 1361.19 652.746 C 1363.79 679.94 1365.73 707.175 1368.31 734.384 C 1340.12 738.507 1309.39 744.29 1281.2 749.275 C 1273 683.759 1275.16 489.337 1241.06 445.522 C 1236.08 439.124 1229.41 434.848 1221.28 433.912 C 1204.97 432.031 1188.46 440.396 1176.07 450.236 C 1172.2 453.868 1168.69 457.871 1165.6 462.188 C 1135.74 504.131 1144.94 572.103 1150.81 620.25 C 1155.61 658.36 1161.19 696.367 1167.55 734.247 C 1143.15 738.465 1112.05 746.126 1087.34 751.477 L 1060.41 506.82 C 1056.27 469.008 1052.51 423.406 1046.86 386.236 L 1118.25 370.461 C 1119.78 381.177 1121.21 391.907 1122.54 402.649 C 1147.92 378.357 1167.68 365.854 1203.48 362.38 z"/>
<path transform="translate(0,0)" fill="rgb(254,253,253)" d="M 1009.75 393.562 C 1014.73 393.217 1020.18 393.096 1025.21 392.88 C 1025.11 445.738 1028.61 497.605 1022.02 551.175 C 1013.78 618.11 1002.63 702.674 949.701 750.038 C 931.054 766.724 903.728 772.339 879.793 769.507 C 783.864 760.562 758.579 663.933 754.071 582.768 C 751.913 543.904 750.542 513.834 754.808 474.236 C 756.47 452.287 760.784 423.714 764.992 402.223 C 793.942 402.05 828.387 403.047 857.302 403.902 C 841.459 472.605 830.71 542.521 836.442 614.872 C 839.946 659.09 873.346 703.873 918.329 657.55 C 926.524 649.11 933.834 621.538 935.43 608.916 C 944.302 538.76 934.055 466.402 923.12 396.974 L 1009.75 393.562 z"/>
<path transform="translate(0,0)" fill="rgb(254,253,253)" d="M 413.987 414.434 L 414.716 414.4 C 415.231 414.704 415.745 415.008 416.26 415.312 C 448.98 516.178 499.533 674.041 530.208 769.55 C 503.957 775.361 472.477 779.816 445.639 784.13 L 423.435 671.595 C 406.217 672.949 384.695 676.254 367.239 678.437 C 363.796 679.3 347.749 680.94 343.324 681.49 C 341.253 719.157 338.375 757.391 335.872 795.054 C 310.903 794.236 281.431 791.268 255.866 789.789 C 264.967 745.952 272.965 698.986 281.307 654.817 L 324.598 424.608 L 413.987 414.434 z"/>
<path transform="translate(0,0)" fill="rgb(0,0,0)" d="M 367.549 510.825 C 370.549 514.09 411.286 613.368 415.615 623.816 L 390.759 625.35 C 378.125 626.916 356.961 627.73 343.9 628.304 C 351.413 590.788 358.863 547.637 367.549 510.825 z"/>
<path transform="translate(0,0)" fill="rgb(193,37,73)" d="M 385.519 575.577 C 388.87 578.457 401.45 609.605 403.475 615.581 C 401.22 617.42 398.213 617.056 395.096 617.166 C 389.464 617.92 382.581 618.43 376.838 618.993 C 379.938 604.563 382.832 590.089 385.519 575.577 z"/>
<path transform="translate(0,0)" fill="rgb(254,253,253)" d="M 1743.79 329.349 C 1745.88 328.953 1745.88 328.815 1747.95 329.565 C 1750.69 335.634 1749.88 360.311 1750.19 368.799 L 1753.58 464.021 L 1761.54 694.195 C 1736.31 694.493 1706.57 695.759 1681.47 694.689 C 1679.31 692.965 1679.82 692.069 1679.25 688.694 L 1652.66 346.465 C 1681.56 340.229 1714.46 334.673 1743.79 329.349 z"/>
<path transform="translate(0,0)" fill="rgb(254,253,253)" d="M 1880.28 289.354 C 1882.99 288.801 1883.73 288.407 1886.25 289.219 C 1888.4 293.177 1906.65 515.628 1908.3 539.714 C 1876.01 544.457 1840.73 547.949 1808.11 552.071 L 1807.25 551.645 C 1805.2 548.333 1782.55 327.863 1779.72 304.405 C 1807.87 298.592 1851.2 293.6 1880.28 289.354 z"/>
<path transform="translate(0,0)" fill="rgb(254,253,253)" d="M 1862.61 572.429 C 1896.91 568.365 1928.02 592.851 1932.13 627.145 C 1936.23 661.439 1911.78 692.577 1877.5 696.725 C 1843.15 700.88 1811.94 676.38 1807.83 642.027 C 1803.72 607.674 1828.26 576.501 1862.61 572.429 z"/>
<path transform="translate(0,0)" fill="rgb(0,0,0)" d="M 262.677 864.968 C 270.359 866.299 271.725 872.104 273.7 878.772 C 273.78 878.819 289.586 879.057 293.059 879.802 C 299.901 885.841 303.362 890.417 306.529 899.147 C 309.845 908.289 314.904 938.873 302.929 942.989 C 299.229 943.152 296.403 940.367 293.365 938.077 C 293.08 926.399 299.677 898.837 286.76 893.123 C 280.178 893.199 277.602 896.709 273.046 901.25 C 272.598 916.542 274.827 929.085 277.041 944.039 C 277.379 946.321 276.695 947.141 275.669 948.969 L 273.4 949.586 C 261.889 946.893 261.613 936.489 260.414 927.184 C 258.844 914.998 259.094 902.775 257.609 890.713 C 253.295 892.03 248.6 890.224 244.156 889.02 L 225.89 889.392 C 226.227 907.787 233.109 938.976 229.543 957.876 C 229.139 960.018 227.878 960.207 226.223 960.876 C 222.606 960.614 219.33 957.659 216.3 955.455 C 216.034 933.955 213.825 911.676 211.508 890.322 C 204.611 890.726 200.405 892.128 193.987 894.192 C 193.209 897.665 192.947 899.475 191.244 902.694 C 188.559 904.891 188.205 905.103 184.753 905.221 C 182.653 904.195 181.321 903.834 180.184 901.528 C 165.523 871.795 229.215 871.445 244.94 874.485 C 251.592 875.771 254.437 878.702 257.8 884.443 C 258.415 876.889 257.505 869.531 262.677 864.968 z"/>
<path transform="translate(0,0)" fill="rgb(254,253,253)" d="M 214.692 876.375 C 222.55 874.795 247.689 874.375 252.748 880.571 L 252.34 882.4 C 252.091 882.643 250.155 884.53 250.155 884.53 C 240.097 884.198 230.076 882.834 219.942 883.07 C 221.228 894.916 228.806 949.231 222.882 954.954 L 220.594 954.745 C 217.856 952.051 218.603 953.45 218.054 949.247 C 217.13 927.36 215.363 905.517 212.757 883.767 C 202.489 885.118 198.077 886.008 188.546 889.42 C 187.888 892.919 187.265 897.815 184.42 899.883 L 182.306 899.351 C 179.041 895.342 179.326 890.884 182.718 886.948 C 190.117 878.362 204.202 877.583 214.692 876.375 z"/>
<path transform="translate(0,0)" fill="rgb(254,253,253)" d="M 262.868 867.461 C 264.928 868.225 265.207 868.663 266.748 870.145 C 268.151 874.343 267.124 883.183 266.862 888.117 C 268.945 886.369 271.164 884.79 273.5 883.397 C 305.414 864.733 312.212 931.53 298.095 937.912 L 296.349 937.182 C 294.672 933.219 297.06 917.961 296.658 912.022 C 296.192 905.147 296.103 902.528 294.237 895.367 C 288.761 885.052 280.629 884.607 271.54 891.724 C 259.139 901.436 276.785 937.671 269.928 943.784 L 267.622 943.291 C 259.999 937.119 257.272 877.504 262.868 867.461 z"/>
<path transform="translate(0,0)" fill="rgb(193,37,73)" d="M 434.572 769.416 C 436.338 777.388 437.956 785.392 439.427 793.423 C 447.095 791.657 453.744 790.702 461.53 789.568 L 465.275 809.168 L 521.783 799.724 C 528.277 798.636 545.642 794.816 551.271 794.95 C 584.14 795.738 612.021 794.099 644.508 788.967 C 648.228 800.229 651.235 809.736 654.151 821.273 C 655.443 826.383 658.919 841.153 660.547 844.869 C 669.45 848.026 675.593 853.593 679.53 862.131 C 687.311 879.006 673.913 877.677 666.578 882.285 L 666.356 884.257 C 686.787 891.103 671.36 900.942 669.425 906.653 C 668.639 926.228 669.634 945.19 668.278 964.575 C 661.806 1057.1 614.117 1142.13 528.387 1182.36 C 521.64 1185.53 510.042 1190.25 503.795 1194 L 496.892 1194 C 478.971 1166.33 460.1 1141.92 443.706 1112.9 C 424.924 1120.27 404.336 1131.18 385.489 1139.25 C 369.838 1145.96 355.35 1151.64 339.409 1157.74 C 335.829 1152.87 331.361 1144.81 328.753 1139.29 C 297.713 1073.53 309.81 1000.93 332.581 935.156 C 309.409 928.121 308.267 899.802 319.721 881.687 C 328.556 868.973 346.669 867.261 356.916 879.178 C 358.794 876.732 361.117 872.335 362.654 869.534 C 382.852 832.734 406.737 800.768 434.572 769.416 z M 333.904 922.103 C 339.33 919.907 340.392 915.802 342.701 910.533 C 338.006 910.69 333.275 910.406 329.261 912.782 L 327.836 914.838 C 328.502 918.223 330.833 920.556 333.904 922.103 z M 321.726 899.664 C 328.184 899.264 332.459 899.012 338.897 897.802 C 345.058 896.507 352.697 896.079 351.832 887.749 C 348.892 881.294 342.969 879.466 336.35 879.839 C 326.082 885.612 325.315 888.358 321.726 899.664 z"/>
<path transform="translate(0,0)" fill="rgb(0,0,0)" d="M 660.547 844.869 C 669.45 848.026 675.593 853.593 679.53 862.131 C 687.311 879.006 673.913 877.677 666.578 882.285 L 666.356 884.257 C 686.787 891.103 671.36 900.942 669.425 906.653 L 668.357 905.642 C 630.96 923.544 615.963 866.496 643.736 848.853 C 649.378 845.268 654.07 845.197 660.547 844.869 z"/>
<path transform="translate(0,0)" fill="rgb(193,37,73)" d="M 666.356 884.257 C 661.235 892.287 648.914 901.924 643.364 889.658 C 645.374 881.7 659.394 882.658 666.578 882.285 L 666.356 884.257 z"/>
<path transform="translate(0,0)" fill="rgb(254,253,253)" d="M 651.119 847.113 C 660.912 846.498 675.249 851.173 676.205 862.767 C 677.425 877.571 648.945 878.843 638.212 879.389 C 640.516 895.719 651.015 904.331 664.538 890.762 C 666.827 888.258 665.711 888.804 668.769 888.083 L 670.528 889.389 L 670.715 892.082 C 666.473 902.921 651.306 906.959 643.175 902.143 C 621.773 889.466 630.106 855.551 651.119 847.113 z"/>
<path transform="translate(0,0)" fill="rgb(0,0,0)" d="M 654.348 853.02 C 660.125 853.26 665.387 855.914 668.087 861.162 C 668.147 870.124 660.132 870.304 653.114 871.694 L 638.053 873.232 C 641.11 862.153 643.295 857.143 654.348 853.02 z"/>
<path transform="translate(0,0)" fill="rgb(193,37,73)" d="M 659.606 857.818 C 662.919 858.574 664.461 859.358 665.756 862.454 C 663.518 867.166 656.878 869.252 652.185 870.406 C 648.739 870.748 649.267 871.232 646.704 869.895 L 646.436 867.699 C 649.022 862.814 654.714 859.844 659.606 857.818 z"/>
<path transform="translate(0,0)" fill="rgb(254,253,253)" d="M 319.721 881.687 C 328.556 868.973 346.669 867.261 356.916 879.178 C 359.98 884.199 365.333 892.397 363.961 898.375 C 362.106 906.462 347.605 907.016 342.701 910.533 C 338.006 910.69 333.275 910.406 329.261 912.782 L 327.836 914.838 C 328.502 918.223 330.833 920.556 333.904 922.103 L 332.94 923.013 C 336.479 924.676 338.844 923.985 342.159 922.293 L 341.941 920.989 C 344.48 917.961 346.646 914.625 350.296 913.435 C 358 913.735 357.562 916.029 361.634 922.159 C 357.108 929.26 355.081 930.844 347.668 934.899 C 343.611 934.947 336.373 934.8 332.581 935.156 C 309.409 928.121 308.267 899.802 319.721 881.687 z M 321.726 899.664 C 328.184 899.264 332.459 899.012 338.897 897.802 C 345.058 896.507 352.697 896.079 351.832 887.749 C 348.892 881.294 342.969 879.466 336.35 879.839 C 326.082 885.612 325.315 888.358 321.726 899.664 z"/>
<path transform="translate(0,0)" fill="url(#Gradient1)" d="M 319.721 881.687 C 328.556 868.973 346.669 867.261 356.916 879.178 C 359.98 884.199 365.333 892.397 363.961 898.375 C 362.106 906.462 347.605 907.016 342.701 910.533 C 338.006 910.69 333.275 910.406 329.261 912.782 L 327.836 914.838 C 328.502 918.223 330.833 920.556 333.904 922.103 L 332.94 923.013 C 324.407 921.423 323.304 913.057 322.233 905.914 C 332.15 905.636 348.095 904.411 355.932 897.841 C 362.06 892.704 359.849 884.551 354.493 879.587 C 350.085 875.477 344.19 873.345 338.174 873.686 C 330.308 874.119 326.304 877.793 321.31 883.318 L 319.721 881.687 z"/>
<path transform="translate(0,0)" fill="rgb(0,0,0)" d="M 332.581 935.156 C 309.409 928.121 308.267 899.802 319.721 881.687 L 321.31 883.318 C 313.39 896.394 314.743 901.861 316.672 916.421 C 319.423 937.187 355.05 931.459 355.317 916.51 L 353.778 914.393 C 348.575 914.256 347.034 919.795 342.159 922.293 L 341.941 920.989 C 344.48 917.961 346.646 914.625 350.296 913.435 C 358 913.735 357.562 916.029 361.634 922.159 C 357.108 929.26 355.081 930.844 347.668 934.899 C 343.611 934.947 336.373 934.8 332.581 935.156 z"/>
<path transform="translate(0,0)" fill="rgb(0,0,0)" d="M 336.35 879.839 C 342.969 879.466 348.892 881.294 351.832 887.749 C 352.697 896.079 345.058 896.507 338.897 897.802 C 332.459 899.012 328.184 899.264 321.726 899.664 C 325.315 888.358 326.082 885.612 336.35 879.839 z M 339.673 895.419 C 345.063 894.023 345.481 894.865 348.538 891.383 L 348.766 888.773 C 345.356 885.272 343.896 885.301 338.853 886.049 C 335.92 888.55 332.463 890.988 330.852 894.395 L 331.487 896.084 C 334.794 896.87 336.362 896.195 339.673 895.419 z"/>
<path transform="translate(0,0)" fill="rgb(0,0,0)" d="M 545.159 852.386 C 552.137 854.91 550.102 858.429 554.921 862.694 C 557.724 865.175 563.766 865.228 566.374 867.686 C 568.902 870.069 570.818 872.865 571.097 876.344 C 566.414 881.774 560.083 874.041 552.695 878.163 C 547.321 883.756 548.285 893.849 552.529 899.883 C 557.896 903.089 567.219 896.252 572.287 904.357 C 572.651 907.8 572.583 908.21 571.37 911.455 C 567.243 914.287 561.161 917.228 556.11 916.296 C 538.503 913.044 536.413 885.932 533.629 882.274 C 530.866 880.623 528.618 880.888 525.347 880.758 C 525.317 884.477 525.431 885.54 524.059 889.147 C 513.871 896.288 497.467 895.326 489.626 897.489 C 488.164 900.345 488.983 900.606 489.986 904.423 C 501.394 917.825 509.907 894.274 515.738 899.059 C 532.817 913.076 506.919 925.365 492.667 919.993 C 469.443 911.237 469.637 875.613 487.88 862.079 C 492.456 858.654 496.034 858.077 501.455 856.961 C 512.793 859.514 515.235 861.991 522.378 870.77 C 527.022 867.69 532.181 866.481 537.504 865.124 C 539.696 858.918 540.616 857.072 545.159 852.386 z"/>
<path transform="translate(0,0)" fill="rgb(254,253,253)" d="M 499.469 859.229 C 508.873 859.959 517.419 864.204 520.711 873.395 C 526.918 890.725 495.145 890.115 485.27 892.648 C 479.403 907.187 498.777 916.236 511.238 901.761 C 511.654 901.307 513.053 900.55 513.663 900.185 L 515.751 901.245 C 517.298 907.967 510.861 913.596 504.884 915.137 C 467.824 924.696 467.194 866.905 499.469 859.229 z"/>
<path transform="translate(0,0)" fill="rgb(0,0,0)" d="M 497.028 866.106 C 509.568 865.095 510.869 869.484 514.736 879.965 C 510.716 881.313 505.437 882.627 501.265 883.795 C 494.548 885.176 490.526 885.176 483.77 885.363 C 486.313 874.889 487.956 871.732 497.028 866.106 z"/>
<path transform="translate(0,0)" fill="rgb(193,37,73)" d="M 502.349 871.03 C 506.1 870.686 509.024 871.178 511.649 874.028 C 511.637 880.853 504.442 881.234 499.241 882.126 C 496.381 882.68 495.779 882.764 492.878 882.584 L 491.796 881.112 C 493.063 876.682 498.606 873.328 502.349 871.03 z"/>
<path transform="translate(0,0)" fill="rgb(254,253,253)" d="M 545.56 854.399 L 547.725 855.653 C 549.562 859.345 548.756 859.463 548.231 864.311 C 552.023 867.354 560.724 863.773 565.334 868.858 C 565.919 871.85 566.214 870.941 564.907 872.96 C 558.611 874.708 551.866 868.763 546.165 873.041 C 544.02 881.286 543.266 894.024 550.473 900.561 C 555.711 905.313 560.482 901.748 566.157 901.396 C 567.983 903.588 567.389 903.038 567.521 906.622 C 542.042 921.733 536.344 892.906 537.894 873.748 C 533.367 875.038 529.608 876.641 525.219 875.042 L 524.534 873.501 C 527.707 868.269 533.639 867.943 539.214 866.843 C 541.065 860.73 541.486 859.302 545.56 854.399 z"/>
<path transform="translate(0,0)" fill="rgb(0,0,0)" d="M 453.088 867.955 C 453.187 861.061 453.051 851.374 459.534 847.018 C 463.902 847.36 467.668 855.037 467.437 858.544 C 465.818 883.223 465.594 905.305 468.672 929.833 C 468.957 932.11 467.353 934.807 465.61 936.29 C 451.684 938.209 419.721 888.537 413.25 876.777 C 412.97 887.941 413.58 932.985 412.215 939.802 C 406.864 943.338 402.971 937.496 399.43 933.614 C 397.919 919.239 394.926 858.802 407.358 852.234 C 413.438 852.947 426.695 878.107 430.821 884.397 C 437.902 895.191 445.163 904.951 453.767 914.599 L 453.015 902.062 C 450.987 894.16 451.843 876.139 453.088 867.955 z"/>
<path transform="translate(0,0)" fill="rgb(100,17,33)" d="M 453.088 867.955 C 453.748 877.533 453.877 892.566 453.015 902.062 C 450.987 894.16 451.843 876.139 453.088 867.955 z"/>
<path transform="translate(0,0)" fill="rgb(254,253,253)" d="M 458.931 848.422 C 460.43 849.422 461.066 850.147 462.36 851.376 C 462.499 851.87 462.251 931.781 463.143 929.937 C 449.222 935.352 416.668 879.652 409.736 867.898 C 407.956 879.32 407.156 890.872 407.344 902.43 C 407.546 910.525 409.407 926.429 407.799 934.267 C 407.529 935.583 405.491 935.927 403.839 936.559 C 397.248 927.61 397.624 855.766 409.212 854.527 C 412.12 856.373 413.478 860.141 415.185 863.161 C 426.751 883.62 439.086 902.302 455.873 918.887 C 454.071 905.371 451.707 858.306 458.931 848.422 z"/>
<path transform="translate(0,0)" fill="rgb(254,253,253)" d="M 575.821 843.127 C 577.76 839.673 576.625 840.739 580.032 838.993 C 587.491 839.734 588.139 847.41 589.437 853.356 C 601.098 852.104 601.068 849.951 611.848 855.771 C 624.598 862.655 631.712 911.695 618.426 916.162 C 614.507 915.378 611.812 912.316 609.007 909.433 C 610.619 899.379 617.848 848.122 591.697 870.389 C 581.501 879.071 597.698 916.546 588.484 921.653 C 585.05 921.217 582.394 918.184 579.973 915.656 C 577.966 907.611 576.353 901.507 575.669 893.197 C 572.847 886.338 574.084 851.483 575.821 843.127 z"/>
<path transform="translate(0,0)" fill="rgb(0,0,0)" d="M 575.821 843.127 C 577.76 839.673 576.625 840.739 580.032 838.993 C 587.491 839.734 588.139 847.41 589.437 853.356 C 601.098 852.104 601.068 849.951 611.848 855.771 C 624.598 862.655 631.712 911.695 618.426 916.162 C 614.507 915.378 611.812 912.316 609.007 909.433 C 610.619 899.379 617.848 848.122 591.697 870.389 C 581.501 879.071 597.698 916.546 588.484 921.653 C 585.05 921.217 582.394 918.184 579.973 915.656 C 577.966 907.611 576.353 901.507 575.669 893.197 L 578.046 894.975 C 578.497 900.212 579.341 915.16 584.98 916.537 L 586.955 915.077 C 590.494 907.614 575.513 871.479 588.336 863.916 C 622.491 843.77 608.853 903.933 613.521 910.382 L 615.367 910.12 C 629.1 897.821 618.229 829.492 582.835 861.697 C 583.111 858.813 583.364 855.927 583.595 853.039 C 583.89 849.248 584.7 843.911 582.191 840.973 C 579.192 840.929 580.309 840.724 577.45 843.165 L 575.821 843.127 z"/>
<path transform="translate(0,0)" fill="rgb(100,17,33)" d="M 575.821 843.127 L 577.45 843.165 C 576.442 861.063 575.355 877.067 578.046 894.975 L 575.669 893.197 C 572.847 886.338 574.084 851.483 575.821 843.127 z"/>
<path transform="translate(0,0)" fill="rgb(0,0,0)" d="M 1086.44 824.421 C 1087.1 816.831 1087.09 808.382 1091.35 802.075 C 1098.41 798.048 1103.5 809.489 1104.05 815.417 C 1108.95 814.975 1120.54 813.842 1124.78 817.919 C 1138.15 830.763 1143.85 862.39 1133.52 878.495 C 1132.38 880.265 1131.05 879.885 1129.13 879.903 C 1125.1 877.945 1123.3 876.482 1119.7 873.767 C 1122.7 863.923 1127.62 833.633 1116 828.754 C 1109.99 827.976 1105.06 832.914 1101.5 837.15 C 1100.63 856.46 1105.33 870.897 1105.05 885.034 C 1097.47 885.357 1095.05 883.321 1091.49 877.07 L 1092.88 876.501 C 1090.07 857.143 1089.05 847.003 1089.06 827.178 L 1087.34 826.974 L 1086.44 824.421 z"/>
<path transform="translate(0,0)" fill="rgb(254,253,253)" d="M 1089.06 827.178 C 1089.3 819.287 1088.4 811.906 1093.24 805.834 L 1094.97 805.877 C 1098.37 810.697 1096.48 818.405 1095.71 824.334 C 1134.51 792.79 1139.81 864.445 1127.31 873.622 L 1125.76 873.288 C 1120.33 861.828 1135.32 813.697 1103.76 824.887 C 1086.49 831.013 1104.69 874.93 1097.16 879.283 C 1093.87 878.2 1094.94 878.979 1092.88 876.501 C 1090.07 857.143 1089.05 847.003 1089.06 827.178 z"/>
<path transform="translate(0,0)" fill="rgb(0,0,0)" d="M 688.297 898.625 C 689.411 885.398 692.158 874.318 684.424 862.376 C 680.534 856.37 675.933 847.232 687.52 847.012 C 690.721 848.392 691.409 849.736 693.324 852.547 L 693.972 853.508 L 695.769 853.436 C 699.699 850.499 700.327 850.236 705.033 848.811 C 714.162 849.706 719.515 849.545 722.348 860.408 C 721.635 863.545 722.366 862.478 719.508 864.331 C 716.547 863.957 715.721 863.58 712.928 862.479 L 711.431 862.803 L 709.445 862.93 C 696.751 868.901 711.604 902.876 697.291 905.177 C 693.455 904.161 691.179 901.407 688.297 898.625 z"/>
<path transform="translate(0,0)" fill="rgb(254,253,253)" d="M 684.616 848.356 C 690.444 850.788 691.759 855.029 694.533 860.57 C 697.367 856.802 699.459 852.865 703.981 850.798 C 709.052 848.48 717.298 850.976 717.406 857.242 L 715.851 858.451 C 706.9 861.3 701.933 849.458 698.228 869.393 C 698.612 875.712 701.312 897.007 693.328 899.145 C 689.421 893.516 692.446 877.448 690.836 870.399 C 688.856 861.73 681.053 856.968 684.616 848.356 z"/>
</svg>